<svg xmlns="http://www.w3.org/2000/svg" xmlns:xlink="http://www.w3.org/1999/xlink" contentStyleType="text/css" height="1282px" preserveAspectRatio="none" style="width:1126px;height:1282px;background:#FFFFFF;" version="1.1" viewBox="0 0 1126 1282" width="1126px" zoomAndPan="magnify"><defs/><g><ellipse cx="78.75" cy="270" fill="#222222" rx="10" ry="10" style="stroke:#222222;stroke-width:1.0;"/><g id="Morning"><rect fill="#F1F1F1" height="64.2344" rx="12.5" ry="12.5" style="stroke:#181818;stroke-width:0.5;" width="143.5039" x="7" y="356"/><line style="stroke:#181818;stroke-width:0.5;" x1="7" x2="150.5039" y1="382.2969" y2="382.2969"/><text fill="#000000" font-family="sans-serif" font-size="14" lengthAdjust="spacing" textLength="56.9229" x="50.2905" y="373.9951">Morning</text><text fill="#000000" font-family="sans-serif" font-size="12" lengthAdjust="spacing" textLength="73.3594" x="12" y="398.4355">1 - Wake Up</text><text fill="#000000" font-family="sans-serif" font-size="12" lengthAdjust="spacing" textLength="123.5039" x="12" y="412.4043">2 - Organize the bed</text></g><g id="StartDay"><rect fill="#F1F1F1" height="78.2031" rx="12.5" ry="12.5" style="stroke:#181818;stroke-width:0.5;" width="116.6211" x="20.44" y="497.23"/><line style="stroke:#181818;stroke-width:0.5;" x1="20.44" x2="137.0611" y1="523.5269" y2="523.5269"/><text fill="#000000" font-family="sans-serif" font-size="14" lengthAdjust="spacing" textLength="61.8447" x="47.8282" y="515.2251">StartDay</text><text fill="#000000" font-family="sans-serif" font-size="12" lengthAdjust="spacing" textLength="90.5684" x="25.44" y="539.6655">1 - MakeCoffee</text><text fill="#000000" font-family="sans-serif" font-size="12" lengthAdjust="spacing" textLength="96.6211" x="25.44" y="553.6343">2 - EatBreakfast</text><text fill="#000000" font-family="sans-serif" font-size="12" lengthAdjust="spacing" textLength="93.3047" x="25.44" y="567.603">3 - TakeShower</text></g><g id="ChecktheDate"><rect fill="#F1F1F1" height="134.0781" rx="12.5" ry="12.5" style="stroke:#181818;stroke-width:0.5;" width="119.5039" x="19" y="652.44"/><line style="stroke:#181818;stroke-width:0.5;" x1="19" x2="138.5039" y1="678.7369" y2="678.7369"/><text fill="#000000" font-family="sans-serif" font-size="14" lengthAdjust="spacing" textLength="99.5039" x="29" y="670.4351">ChecktheDate</text><text fill="#000000" font-family="sans-serif" font-size="12" lengthAdjust="spacing" textLength="47.373" x="24" y="694.8755">Monday</text><text fill="#000000" font-family="sans-serif" font-size="12" lengthAdjust="spacing" textLength="50.6426" x="24" y="708.8443">Tuesday</text><text fill="#000000" font-family="sans-serif" font-size="12" lengthAdjust="spacing" textLength="70.1777" x="24" y="722.813">Wednesday</text><text fill="#000000" font-family="sans-serif" font-size="12" lengthAdjust="spacing" textLength="55.7988" x="24" y="736.7818">Thursday</text><text fill="#000000" font-family="sans-serif" font-size="12" lengthAdjust="spacing" textLength="37.2422" x="24" y="750.7505">Friday</text><text fill="#000000" font-family="sans-serif" font-size="12" lengthAdjust="spacing" textLength="54.2871" x="24" y="764.7193">Saturday</text><text fill="#000000" font-family="sans-serif" font-size="12" lengthAdjust="spacing" textLength="44.9004" x="24" y="778.688">Sunday</text></g><g id="WeekDays"><rect fill="#F1F1F1" height="50.2656" rx="12.5" ry="12.5" style="stroke:#181818;stroke-width:0.5;" width="94.1152" x="60.69" y="1219.5"/><line style="stroke:#181818;stroke-width:0.5;" x1="60.69" x2="154.8052" y1="1245.7969" y2="1245.7969"/><text fill="#000000" font-family="sans-serif" font-size="14" lengthAdjust="spacing" textLength="74.1152" x="70.69" y="1237.4951">WeekDays</text><text fill="#000000" font-family="sans-serif" font-size="12" lengthAdjust="spacing" textLength="62.9941" x="65.69" y="1261.9355">Get Ready</text></g><g id="Weekends"><rect fill="#F1F1F1" height="50" rx="12.5" ry="12.5" style="stroke:#181818;stroke-width:0.5;" width="92.8438" x="468.33" y="694.48"/><line style="stroke:#181818;stroke-width:0.5;" x1="468.33" x2="561.1737" y1="720.7769" y2="720.7769"/><text fill="#000000" font-family="sans-serif" font-size="14" lengthAdjust="spacing" textLength="72.8438" x="478.33" y="712.4751">Weekends</text></g><g id="GotoTOtheCar"><rect fill="#F1F1F1" height="50" rx="12.5" ry="12.5" style="stroke:#181818;stroke-width:0.5;" width="120.126" x="420.69" y="1085.52"/><line style="stroke:#181818;stroke-width:0.5;" x1="420.69" x2="540.816" y1="1111.8169" y2="1111.8169"/><text fill="#000000" font-family="sans-serif" font-size="14" lengthAdjust="spacing" textLength="100.126" x="430.69" y="1103.5151">GotoTOtheCar</text></g><g id="GotoWork"><rect fill="#F1F1F1" height="64.2344" rx="12.5" ry="12.5" style="stroke:#181818;stroke-width:0.5;" width="90.8867" x="647.31" y="1212.52"/><line style="stroke:#181818;stroke-width:0.5;" x1="647.31" x2="738.1967" y1="1238.8169" y2="1238.8169"/><text fill="#000000" font-family="sans-serif" font-size="14" lengthAdjust="spacing" textLength="69.7402" x="657.8832" y="1230.5151">GotoWork</text><text fill="#000000" font-family="sans-serif" font-size="12" lengthAdjust="spacing" textLength="57.2109" x="652.31" y="1254.9555">Get there</text><text fill="#000000" font-family="sans-serif" font-size="12" lengthAdjust="spacing" textLength="70.8867" x="652.31" y="1268.9243">work until 5</text></g><g id="GoBackHome"><rect fill="#F1F1F1" height="50" rx="12.5" ry="12.5" style="stroke:#181818;stroke-width:0.5;" width="114.7461" x="534.38" y="7"/><line style="stroke:#181818;stroke-width:0.5;" x1="534.38" x2="649.1261" y1="33.2969" y2="33.2969"/><text fill="#000000" font-family="sans-serif" font-size="14" lengthAdjust="spacing" textLength="94.7461" x="544.38" y="24.9951">GoBackHome</text></g><g id="GoToBed"><rect fill="#F1F1F1" height="50" rx="12.5" ry="12.5" style="stroke:#181818;stroke-width:0.5;" width="83.6357" x="777.93" y="363.12"/><line style="stroke:#181818;stroke-width:0.5;" x1="777.93" x2="861.5657" y1="389.4169" y2="389.4169"/><text fill="#000000" font-family="sans-serif" font-size="14" lengthAdjust="spacing" textLength="63.6357" x="787.93" y="381.1151">GoToBed</text></g><g id="DoLaundry"><rect fill="#F1F1F1" height="50" rx="12.5" ry="12.5" style="stroke:#181818;stroke-width:0.5;" width="96.3984" x="474.55" y="863.52"/><line style="stroke:#181818;stroke-width:0.5;" x1="474.55" x2="570.9484" y1="889.8169" y2="889.8169"/><text fill="#000000" font-family="sans-serif" font-size="14" lengthAdjust="spacing" textLength="76.3984" x="484.55" y="881.5151">DoLaundry</text></g><g id="CheckGroceriesList"><rect fill="#F1F1F1" height="50" rx="12.5" ry="12.5" style="stroke:#181818;stroke-width:0.5;" width="154.5723" x="460.47" y="974.52"/><line style="stroke:#181818;stroke-width:0.5;" x1="460.47" x2="615.0423" y1="1000.8169" y2="1000.8169"/><text fill="#000000" font-family="sans-serif" font-size="14" lengthAdjust="spacing" textLength="134.5723" x="470.47" y="992.5151">CheckGroceriesList</text></g><g id="DoGroceries"><rect fill="#F1F1F1" height="50" rx="12.5" ry="12.5" style="stroke:#181818;stroke-width:0.5;" width="106.3789" x="341.56" y="1219.63"/><line style="stroke:#181818;stroke-width:0.5;" x1="341.56" x2="447.9389" y1="1245.9269" y2="1245.9269"/><text fill="#000000" font-family="sans-serif" font-size="14" lengthAdjust="spacing" textLength="86.3789" x="351.56" y="1237.6251">DoGroceries</text></g><g id="OrganizeGroceries"><rect fill="#F1F1F1" height="50" rx="12.5" ry="12.5" style="stroke:#181818;stroke-width:0.5;" width="149.999" x="775.75" y="7"/><line style="stroke:#181818;stroke-width:0.5;" x1="775.75" x2="925.749" y1="33.2969" y2="33.2969"/><text fill="#000000" font-family="sans-serif" font-size="14" lengthAdjust="spacing" textLength="129.999" x="785.75" y="24.9951">OrganizeGroceries</text></g><g id="CheckingTheWashing"><rect fill="#F1F1F1" height="50" rx="12.5" ry="12.5" style="stroke:#181818;stroke-width:0.5;" width="170.9922" x="784.26" y="118"/><line style="stroke:#181818;stroke-width:0.5;" x1="784.26" x2="955.2522" y1="144.2969" y2="144.2969"/><text fill="#000000" font-family="sans-serif" font-size="14" lengthAdjust="spacing" textLength="150.9922" x="794.26" y="135.9951">CheckingTheWashing</text></g><g id="DoOtherChores"><rect fill="#F1F1F1" height="50" rx="12.5" ry="12.5" style="stroke:#181818;stroke-width:0.5;" width="127.9736" x="929.77" y="245"/><line style="stroke:#181818;stroke-width:0.5;" x1="929.77" x2="1057.7436" y1="271.2969" y2="271.2969"/><text fill="#000000" font-family="sans-serif" font-size="14" lengthAdjust="spacing" textLength="107.9736" x="939.77" y="262.9951">DoOtherChores</text></g><g id="UnloadMachine"><rect fill="#F1F1F1" height="50" rx="12.5" ry="12.5" style="stroke:#181818;stroke-width:0.5;" width="127.6455" x="766.93" y="245"/><line style="stroke:#181818;stroke-width:0.5;" x1="766.93" x2="894.5755" y1="271.2969" y2="271.2969"/><text fill="#000000" font-family="sans-serif" font-size="14" lengthAdjust="spacing" textLength="107.6455" x="776.93" y="262.9951">UnloadMachine</text></g><g id="CookSomething"><rect fill="#F1F1F1" height="50" rx="12.5" ry="12.5" style="stroke:#181818;stroke-width:0.5;" width="130.7285" x="927.39" y="363.12"/><line style="stroke:#181818;stroke-width:0.5;" x1="927.39" x2="1058.1185" y1="389.4169" y2="389.4169"/><text fill="#000000" font-family="sans-serif" font-size="14" lengthAdjust="spacing" textLength="110.7285" x="937.39" y="381.1151">CookSomething</text></g><g id="EatLunch"><rect fill="#F1F1F1" height="50" rx="12.5" ry="12.5" style="stroke:#181818;stroke-width:0.5;" width="85.0303" x="1028.24" y="511.34"/><line style="stroke:#181818;stroke-width:0.5;" x1="1028.24" x2="1113.2703" y1="537.6369" y2="537.6369"/><text fill="#000000" font-family="sans-serif" font-size="14" lengthAdjust="spacing" textLength="65.0303" x="1038.24" y="529.3351">EatLunch</text></g><!--link *start* to Morning--><g id="link_*start*_Morning"><path d="M78.75,280.11 C78.75,296.15 78.75,324.13 78.75,349.52 " fill="none" id="*start*-to-Morning" style="stroke:#181818;stroke-width:1.0;"/><polygon fill="#181818" points="78.75,355.52,82.75,346.52,78.75,350.52,74.75,346.52,78.75,355.52" style="stroke:#181818;stroke-width:1.0;"/></g><!--link Morning to StartDay--><g id="link_Morning_StartDay"><path d="M78.75,420.48 C78.75,442.89 78.75,467.16 78.75,491 " fill="none" id="Morning-to-StartDay" style="stroke:#181818;stroke-width:1.0;"/><polygon fill="#181818" points="78.75,497,82.75,488,78.75,492,74.75,488,78.75,497" style="stroke:#181818;stroke-width:1.0;"/><text fill="#000000" font-family="sans-serif" font-size="13" lengthAdjust="spacing" textLength="126.604" x="79.75" y="463.2969">Walk to the kitchen</text></g><!--link StartDay to ChecktheDate--><g id="link_StartDay_ChecktheDate"><path d="M78.75,575.75 C78.75,597.98 78.75,620.56 78.75,646.3 " fill="none" id="StartDay-to-ChecktheDate" style="stroke:#181818;stroke-width:1.0;"/><polygon fill="#181818" points="78.75,652.3,82.75,643.3,78.75,647.3,74.75,643.3,78.75,652.3" style="stroke:#181818;stroke-width:1.0;"/><text fill="#000000" font-family="sans-serif" font-size="13" lengthAdjust="spacing" textLength="144.2886" x="79.75" y="618.5069">checking the calendar</text></g><!--reverse link WeekDays to ChecktheDate--><g id="link_WeekDays_ChecktheDate"><path d="M97.1944,1213.4441 C88.6544,1187.1841 78.75,1149.79 78.75,1111.52 C78.75,887.52 78.75,887.52 78.75,887.52 C78.75,854.31 78.75,817.39 78.75,786.73 " fill="none" id="WeekDays-backto-ChecktheDate" style="stroke:#181818;stroke-width:1.0;"/><polygon fill="#181818" points="99.05,1219.15,100.0705,1209.3542,97.5037,1214.3951,92.4627,1211.8283,99.05,1219.15" style="stroke:#181818;stroke-width:1.0;"/><text fill="#000000" font-family="sans-serif" font-size="13" lengthAdjust="spacing" textLength="154.8511" x="79.75" y="1004.0869">Get ready to go to work</text></g><!--link ChecktheDate to Weekends--><g id="link_ChecktheDate_Weekends"><path d="M138.92,719.48 C226.75,719.48 382.27,719.48 461.88,719.48 " fill="none" id="ChecktheDate-to-Weekends" style="stroke:#181818;stroke-width:1.0;"/><polygon fill="#181818" points="467.88,719.48,458.88,715.48,462.88,719.48,458.88,723.48,467.88,719.48" style="stroke:#181818;stroke-width:1.0;"/><text fill="#000000" font-family="sans-serif" font-size="13" lengthAdjust="spacing" textLength="149.665" x="228.92" y="712.5469">Get ready to do chores</text></g><!--reverse link GotoTOtheCar to WeekDays--><g id="link_GotoTOtheCar_WeekDays"><path d="M414.5282,1115.9475 C332.5082,1122.3575 197.05,1136.79 154.75,1165.52 C135.9,1178.32 123.38,1201.44 116.04,1219.21 " fill="none" id="GotoTOtheCar-backto-WeekDays" style="stroke:#181818;stroke-width:1.0;"/><polygon fill="#181818" points="420.51,1115.48,411.2257,1112.1934,415.5252,1115.8696,411.849,1120.1691,420.51,1115.48" style="stroke:#181818;stroke-width:1.0;"/><text fill="#000000" font-family="sans-serif" font-size="13" lengthAdjust="spacing" textLength="99.2012" x="155.75" y="1178.5869">Walk to the car</text></g><!--link GotoTOtheCar to GotoWork--><g id="link_GotoTOtheCar_GotoWork"><path d="M541.08,1126.8 C568.18,1135.45 599.64,1148.09 624.75,1165.52 C642.77,1178.02 655.4023,1191.5938 667.5223,1207.3538 " fill="none" id="GotoTOtheCar-to-GotoWork" style="stroke:#181818;stroke-width:1.0;"/><polygon fill="#181818" points="671.18,1212.11,668.8643,1202.5373,668.1319,1208.1465,662.5227,1207.4142,671.18,1212.11" style="stroke:#181818;stroke-width:1.0;"/></g><!--reverse link GoBackHome to GotoWork--><g id="link_GoBackHome_GotoWork"><path d="M652.9752,60.2891 C685.0452,78.3891 713.75,103.66 713.75,142 C713.75,142 713.75,142 713.75,1111.52 C713.75,1146.24 706.59,1185.46 700.63,1212.09 " fill="none" id="GoBackHome-backto-GotoWork" style="stroke:#181818;stroke-width:1.0;"/><polygon fill="#181818" points="647.75,57.34,653.6218,65.2471,652.1044,59.7976,657.5539,58.2801,647.75,57.34" style="stroke:#181818;stroke-width:1.0;"/><text fill="#000000" font-family="sans-serif" font-size="13" lengthAdjust="spacing" textLength="91.0698" x="714.75" y="618.5069">drive to home</text></g><!--link GoBackHome to GoToBed--><g id="link_GoBackHome_GoToBed"><path d="M584.38,57.25 C574.75,93.69 561.96,163.76 587.75,215 C627.43,293.85 716.7295,343.1878 772.0895,367.8578 " fill="none" id="GoBackHome-to-GoToBed" style="stroke:#181818;stroke-width:1.0;"/><polygon fill="#181818" points="777.57,370.3,770.9775,362.983,773.003,368.2648,767.7211,370.2903,777.57,370.3" style="stroke:#181818;stroke-width:1.0;"/><text fill="#000000" font-family="sans-serif" font-size="13" lengthAdjust="spacing" textLength="98.7949" x="588.75" y="211.0669">change clothes</text></g><!--link GoToBed to Morning--><g id="link_GoToBed_Morning"><path d="M777.51,388.12 C655.84,388.12 309.56,388.12 156.81,388.12 " fill="none" id="GoToBed-to-Morning" style="stroke:#181818;stroke-width:1.0;"/><polygon fill="#181818" points="150.81,388.12,159.81,392.12,155.81,388.12,159.81,384.12,150.81,388.12" style="stroke:#181818;stroke-width:1.0;"/><text fill="#000000" font-family="sans-serif" font-size="13" lengthAdjust="spacing" textLength="134.6401" x="397.22" y="381.1869">sleep until tomorrow</text></g><!--link Weekends to DoLaundry--><g id="link_Weekends_DoLaundry"><path d="M512.33,744.8 C510.47,767.73 508.68,803.04 511.75,833.52 C512.74,843.32 513.4333,848.1174 515.4433,857.3474 " fill="none" id="Weekends-to-DoLaundry" style="stroke:#181818;stroke-width:1.0;"/><polygon fill="#181818" points="516.72,863.21,518.7134,853.565,515.6561,858.3245,510.8966,855.2672,516.72,863.21" style="stroke:#181818;stroke-width:1.0;"/><text fill="#000000" font-family="sans-serif" font-size="13" lengthAdjust="spacing" textLength="174.7256" x="512.75" y="829.5869">Load the washing machine</text></g><!--link DoLaundry to CheckGroceriesList--><g id="link_DoLaundry_CheckGroceriesList"><path d="M526.12,913.98 C528.59,931.93 531.1116,950.2561 533.5816,968.1961 " fill="none" id="DoLaundry-to-CheckGroceriesList" style="stroke:#181818;stroke-width:1.0;"/><polygon fill="#181818" points="534.4,974.14,537.1351,964.6785,533.718,969.1867,529.2098,965.7697,534.4,974.14" style="stroke:#181818;stroke-width:1.0;"/></g><!--link CheckGroceriesList to GotoTOtheCar--><g id="link_CheckGroceriesList_GotoTOtheCar"><path d="M524.96,1024.98 C515.57,1042.93 505.6601,1061.8829 496.2801,1079.8229 " fill="none" id="CheckGroceriesList-to-GotoTOtheCar" style="stroke:#181818;stroke-width:1.0;"/><polygon fill="#181818" points="493.5,1085.14,501.2148,1079.0178,495.8167,1080.7091,494.1254,1075.311,493.5,1085.14" style="stroke:#181818;stroke-width:1.0;"/></g><!--link GotoTOtheCar to DoGroceries--><g id="link_GotoTOtheCar_DoGroceries"><path d="M483,1135.94 C483.23,1150.34 481.55,1168.43 473.75,1182.52 C465.61,1197.23 457.1689,1206.0637 443.7689,1215.7137 " fill="none" id="GotoTOtheCar-to-DoGroceries" style="stroke:#181818;stroke-width:1.0;"/><polygon fill="#181818" points="438.9,1219.22,448.5408,1217.2064,442.9574,1216.2981,443.8658,1210.7146,438.9,1219.22" style="stroke:#181818;stroke-width:1.0;"/><text fill="#000000" font-family="sans-serif" font-size="13" lengthAdjust="spacing" textLength="135.3384" x="480.75" y="1178.5869">pickup shopping bag</text></g><!--link DoGroceries to GotoTOtheCar--><g id="link_DoGroceries_GotoTOtheCar"><path d="M341.22,1231.42 C297.47,1218.89 246.51,1196.78 270.75,1165.52 C289,1141.98 359.0028,1127.7661 414.3228,1119.6961 " fill="none" id="DoGroceries-to-GotoTOtheCar" style="stroke:#181818;stroke-width:1.0;"/><polygon fill="#181818" points="420.26,1118.83,410.7769,1116.171,415.3124,1119.5518,411.9317,1124.0873,420.26,1118.83" style="stroke:#181818;stroke-width:1.0;"/><text fill="#000000" font-family="sans-serif" font-size="13" lengthAdjust="spacing" textLength="193.248" x="271.75" y="1178.5869">walk to the car with groceries</text></g><!--link GotoTOtheCar to GoBackHome--><g id="link_GotoTOtheCar_GoBackHome"><path d="M452.32,1085.27 C431.82,1064.97 407.75,1034 407.75,1000.52 C407.75,142 407.75,142 407.75,142 C407.75,82.41 474.2319,56.0317 528.1919,43.6517 " fill="none" id="GotoTOtheCar-to-GoBackHome" style="stroke:#181818;stroke-width:1.0;"/><polygon fill="#181818" points="534.04,42.31,524.3734,40.4239,529.1666,43.4281,526.1624,48.2213,534.04,42.31" style="stroke:#181818;stroke-width:1.0;"/></g><!--link GoBackHome to OrganizeGroceries--><g id="link_GoBackHome_OrganizeGroceries"><path d="M649.55,32 C686.68,32 729.28,32 769.41,32 " fill="none" id="GoBackHome-to-OrganizeGroceries" style="stroke:#181818;stroke-width:1.0;"/><polygon fill="#181818" points="775.41,32,766.41,28,770.41,32,766.41,36,775.41,32" style="stroke:#181818;stroke-width:1.0;"/><text fill="#000000" font-family="sans-serif" font-size="13" lengthAdjust="spacing" textLength="90.7905" x="667.44" y="25.0669">put in shelves</text></g><!--link OrganizeGroceries to CheckingTheWashing--><g id="link_OrganizeGroceries_CheckingTheWashing"><path d="M855.02,57.46 C858.15,75.41 861.3514,93.7788 864.4714,111.7088 " fill="none" id="OrganizeGroceries-to-CheckingTheWashing" style="stroke:#181818;stroke-width:1.0;"/><polygon fill="#181818" points="865.5,117.62,867.8979,108.0675,864.6428,112.694,860.0163,109.439,865.5,117.62" style="stroke:#181818;stroke-width:1.0;"/></g><!--link CheckingTheWashing to DoOtherChores--><g id="link_CheckingTheWashing_DoOtherChores"><path d="M893.95,168.4 C915.8,190.42 943.5538,218.4009 965.3838,240.4009 " fill="none" id="CheckingTheWashing-to-DoOtherChores" style="stroke:#181818;stroke-width:1.0;"/><polygon fill="#181818" points="969.61,244.66,966.1101,235.454,966.0882,241.1108,960.4314,241.0888,969.61,244.66" style="stroke:#181818;stroke-width:1.0;"/><text fill="#000000" font-family="sans-serif" font-size="13" lengthAdjust="spacing" textLength="64.1621" x="939.75" y="211.0669">Not ready</text></g><!--link CheckingTheWashing to UnloadMachine--><g id="link_CheckingTheWashing_UnloadMachine"><path d="M862.14,168.4 C855.27,190.42 846.9985,216.9327 840.1285,238.9327 " fill="none" id="CheckingTheWashing-to-UnloadMachine" style="stroke:#181818;stroke-width:1.0;"/><polygon fill="#181818" points="838.34,244.66,844.8409,237.2614,839.8304,239.8873,837.2045,234.8768,838.34,244.66" style="stroke:#181818;stroke-width:1.0;"/><text fill="#000000" font-family="sans-serif" font-size="13" lengthAdjust="spacing" textLength="37.2544" x="852.75" y="211.0669">ready</text></g><!--link DoOtherChores to CookSomething--><g id="link_DoOtherChores_CookSomething"><path d="M993.54,295.34 C993.37,315.16 993.1815,337.0002 993.0115,356.8102 " fill="none" id="DoOtherChores-to-CookSomething" style="stroke:#181818;stroke-width:1.0;"/><polygon fill="#181818" points="992.96,362.81,997.0371,353.8447,993.0029,357.8102,989.0374,353.776,992.96,362.81" style="stroke:#181818;stroke-width:1.0;"/></g><!--link CookSomething to EatLunch--><g id="link_CookSomething_EatLunch"><path d="M1005.81,413.59 C1020.29,440.74 1040.6972,478.9855 1055.0872,505.9755 " fill="none" id="CookSomething-to-EatLunch" style="stroke:#181818;stroke-width:1.0;"/><polygon fill="#181818" points="1057.91,511.27,1057.2054,501.4464,1055.5577,506.8579,1050.1461,505.2101,1057.91,511.27" style="stroke:#181818;stroke-width:1.0;"/></g><!--link EatLunch to CheckingTheWashing--><g id="link_EatLunch_CheckingTheWashing"><path d="M1078.18,511.11 C1092.66,459.09 1119.56,334.19 1074.75,245 C1052.04,199.8 1006.8358,176.3308 961.4258,162.3908 " fill="none" id="EatLunch-to-CheckingTheWashing" style="stroke:#181818;stroke-width:1.0;"/><polygon fill="#181818" points="955.69,160.63,963.1199,167.0951,960.4698,162.0973,965.4676,159.4473,955.69,160.63" style="stroke:#181818;stroke-width:1.0;"/></g><!--link UnloadMachine to GoToBed--><g id="link_UnloadMachine_GoToBed"><path d="M828.45,295.34 C826.57,315.16 824.4969,337.0268 822.6169,356.8368 " fill="none" id="UnloadMachine-to-GoToBed" style="stroke:#181818;stroke-width:1.0;"/><polygon fill="#181818" points="822.05,362.81,826.8824,354.2282,822.5224,357.8324,818.9182,353.4723,822.05,362.81" style="stroke:#181818;stroke-width:1.0;"/></g><!--SRC=[TLGzZzim3DtrApGNyD0MNJfqIDBc1gS7N7pmK7JGsOmbs14DMZuZ_VMb_FrrIsmzFl9HZtJ-VFehW-27l21POpFHF-Lt-La6CbOvoDToXdvXz9aoPSq_a4w3V8Dq3Fj2LwV8dTI3kR4gSkcmfUN69Hgic8Mzm8K5ZdYx0SmZNkIdSWS2bTzKvUQnhnoBEEkgiG6Q8bxxg279MUsa730ryKVVbsyWKGNOL95OaIx8w6EDHZLKEt0CgTqDHBgcFVmNcHtqgbnDUtYzxIK8uURuRZ50plUic7O69zcQzE7DpT3_DaZvAk_5P7f8v9jl4bDaWv2W4glIBvunWK5TSfKpEeoUkVXHqMgq2Pkw20SzF_PD3IzzSQOGp47VkQojCuNyDk63w44b-HFUlJafcNVmcfhFOXRgv28yGDeENTcCcogGfIen10BgxPXMkIe0obxQuHs9i16ZMq6AZMN-2KF5Oo6_Uo6gjBroeohjYznLmayG4sbSmpDX0cIW2Wqly1OQNHfistfumZ63nKkJv7KfAurbwRNVL2RcZ60xfMOv9TaOfsKsPEmDRJ1ruU-mISDtl-YgTj9OxWgATowvfOo6SC-HXhXpJcoX_ig-7pgsYydbVsE_iHyblDg2XtBfvi097NbPfcq1CR_oRLodFZ_vEF_RXBLDj1XUFkfxgSUaVi7-0m00]--></g></svg>